<?xml version="1.0" standalone="no"?>
<!DOCTYPE svg PUBLIC "-//W3C//DTD SVG 20010904//EN"
 "http://www.w3.org/TR/2001/REC-SVG-20010904/DTD/svg10.dtd">
<svg version="1.0" xmlns="http://www.w3.org/2000/svg"
 width="419.000000pt" height="120.000000pt" viewBox="0 0 419.000000 120.000000"
 preserveAspectRatio="xMidYMid meet">

<g transform="translate(0.000000,120.000000) scale(0.100000,-0.100000)"
fill="#000000" stroke="none">
<path d="M946 680 c-75 -206 -136 -378 -136 -382 0 -5 33 -8 74 -8 72 0 74 1
84 28 5 15 66 183 136 373 69 191 126 349 126 352 0 3 -33 7 -74 9 l-75 3
-135 -375z"/>
<path d="M2560 675 l0 -385 65 0 65 0 -2 383 -3 382 -62 3 -63 3 0 -386z"/>
<path d="M1575 819 c-35 -14 -93 -53 -118 -83 -40 -45 -57 -99 -56 -176 0
-130 41 -200 145 -251 59 -30 69 -31 148 -27 72 4 92 9 133 34 43 27 93 83 93
105 0 16 -136 10 -150 -5 -41 -50 -158 -39 -210 20 -16 19 -30 39 -30 44 0 6
-1 13 -2 16 -2 3 89 6 202 7 l205 2 -1 66 c-3 105 -53 191 -139 237 -37 19
-178 26 -220 11z m136 -99 c43 -12 76 -45 89 -88 l9 -32 -145 0 c-79 0 -144 3
-144 8 0 12 42 76 59 89 15 12 64 30 86 32 6 1 26 -4 46 -9z"/>
<path d="M2155 818 c-33 -12 -90 -52 -118 -83 -39 -43 -58 -103 -58 -179 0
-123 44 -196 147 -247 59 -30 69 -31 148 -27 72 4 92 9 133 34 43 27 93 83 93
105 0 5 -31 9 -70 9 -38 0 -70 -4 -70 -9 0 -5 -20 -17 -44 -26 -63 -24 -133
-7 -176 41 -16 19 -30 39 -30 44 0 6 -1 13 -2 16 -2 3 89 6 202 7 l205 2 -1
62 c0 34 -9 82 -18 107 -21 55 -100 131 -152 145 -48 14 -149 13 -189 -1z
m172 -114 c25 -16 48 -48 58 -81 l6 -23 -145 0 c-80 0 -146 3 -146 8 0 12 42
76 59 89 43 34 122 37 168 7z"/>
<path d="M2875 818 c-79 -28 -115 -77 -115 -156 0 -86 58 -132 192 -153 93
-14 126 -26 133 -50 9 -28 -3 -57 -28 -65 -44 -15 -129 -6 -158 15 -34 25
-149 31 -149 7 0 -30 48 -82 99 -109 45 -22 67 -27 131 -27 87 0 130 12 179
48 70 52 80 156 22 216 -35 36 -71 50 -176 66 -93 14 -103 18 -116 41 -39 74
148 111 190 38 15 -27 20 -29 79 -29 61 0 63 1 57 23 -18 61 -43 93 -95 119
-45 24 -63 28 -134 27 -44 0 -94 -5 -111 -11z"/>
<path d="M127 643 c36 -98 79 -218 96 -266 l31 -88 59 3 60 3 51 142 c29 78
54 145 58 148 3 3 30 -62 59 -145 l54 -151 60 3 60 3 92 255 c51 140 93 258
93 263 0 4 -29 7 -64 7 l-64 0 -57 -156 c-32 -85 -61 -152 -65 -147 -4 4 -31
75 -60 156 l-53 148 -55 -3 -54 -3 -56 -153 c-30 -84 -58 -149 -62 -145 -4 4
-31 74 -60 156 l-53 147 -67 0 -68 0 65 -177z"/>
<path d="M1125 489 c-66 -182 -121 -334 -123 -338 -1 -3 33 -5 77 -3 l79 3 85
237 c48 130 102 281 121 335 l36 97 -78 0 -77 0 -120 -331z"/>
<path d="M3547 655 c-85 -22 -140 -93 -140 -181 0 -70 28 -121 87 -161 40 -27
58 -33 103 -33 34 0 68 7 93 20 45 23 52 31 41 49 -7 11 -15 9 -38 -8 -66 -49
-168 -32 -221 37 -22 29 -27 46 -27 93 0 65 18 98 76 137 28 20 44 23 92 20
38 -3 67 -11 86 -26 25 -18 30 -19 35 -6 9 23 9 22 -31 42 -53 27 -100 32
-156 17z"/>
<path d="M3886 658 c-75 -21 -136 -107 -136 -193 1 -65 61 -151 123 -174 44
-17 127 -13 175 9 42 19 42 19 42 0 0 -13 7 -20 20 -20 19 0 20 7 20 190 0
183 -1 190 -20 190 -13 0 -20 -7 -20 -19 0 -18 -1 -18 -37 0 -49 23 -118 30
-167 17z m161 -49 l43 -21 0 -117 0 -117 -32 -19 c-48 -28 -156 -28 -195 1
-98 73 -98 210 1 269 52 32 123 33 183 4z"/>
<path d="M3267 382 c-36 -40 -9 -102 45 -102 49 0 78 69 42 104 -21 22 -67 20
-87 -2z"/>
</g>
</svg>
