<?xml version="1.0" encoding="utf-8"?>
<!-- Generator: Adobe Illustrator 25.3.1, SVG Export Plug-In . SVG Version: 6.00 Build 0)  -->
<svg version="1.1" id="Layer_1" xmlns="http://www.w3.org/2000/svg" xmlns:xlink="http://www.w3.org/1999/xlink" x="0px" y="0px"
	 viewBox="0 0 320 92" style="enable-background:new 0 0 320 92;" xml:space="preserve">
<style type="text/css">
	.st0{fill:#333333;}
	.st1{fill:#EF4238;}
</style>
<g>
	<polygon class="st0" points="54.5,69.89 45.38,69.89 36.94,46.38 28.41,69.89 19.38,69.89 4.51,28.77 14.99,28.77 23.91,53.43 
		32.83,28.77 41.05,28.77 49.98,53.4 58.89,28.77 69.33,28.77 	"/>
	<polygon class="st1" points="73.39,69.91 61.1,69.91 82.44,10.88 94.74,10.88 	"/>
	<polygon class="st1" points="88.39,81.11 76.09,81.12 95.02,28.77 107.34,28.77 	"/>
	<path class="st0" d="M147.83,53.38h-0.09h-31.33c1.21,5.11,5.02,9,11.94,9c3.98,0,6.83-1.3,8.31-3.81h10.65
		c-2.34,7.53-9.87,12.29-19.21,12.29c-13.07,0-21.72-9.26-21.72-21.38c0-12.2,8.65-21.46,21.72-21.46
		c11.34,0,19.91,8.48,19.99,20.77C148.08,50.27,148.08,51.83,147.83,53.38 M116.32,45.94h21.64c-0.78-5.8-4.41-9.43-10.38-9.43
		C121.17,36.51,117.45,40.66,116.32,45.94"/>
	<path class="st0" d="M192.14,53.38h-0.09h-31.33c1.22,5.11,5.02,9,11.94,9c3.98,0,6.84-1.3,8.31-3.81h10.65
		c-2.34,7.53-9.87,12.29-19.22,12.29c-13.07,0-21.72-9.26-21.72-21.38c0-12.2,8.65-21.46,21.72-21.46c11.34,0,19.9,8.48,19.99,20.77
		C192.39,50.27,192.39,51.83,192.14,53.38 M160.63,45.94h21.63c-0.78-5.8-4.41-9.43-10.39-9.43
		C165.48,36.51,161.76,40.66,160.63,45.94"/>
	<rect x="195.25" y="10.88" class="st0" width="10.04" height="59.03"/>
	<path class="st0" d="M219.28,58.58c1.68,2.16,4.01,3.79,9.55,3.79c4.85,0,6.92-1.24,6.92-3.99c0-2.15-0.96-3.65-4.16-4.25
		l-8.91-1.46c-6.23-1.12-12.38-4.29-12.38-11.68c0-8.16,7.27-13.05,17.48-13.05c7.01,0,17.14,2.4,18.09,13.48l-10.12-0.04
		c-0.35-4.12-3.4-5.04-8.08-5.04c-4.84,0-7.24,1.82-7.24,4.22c0,1.98,1.39,3.26,5.79,4.04l7.62,1.2c6.23,1.12,12.2,3.86,12.2,11.76
		c0,8.67-7.7,13.39-18,13.39c-9.35,0-16.82-4.05-18.54-12.38H219.28z"/>
	<path class="st0" d="M312.45,41.41h3.04v29.27h-3.04v-3.26c-2.99,2.33-6.68,3.47-10.97,3.47c-4.29,0-7.88-1.47-10.81-4.4
		c-2.88-2.99-4.34-6.52-4.34-10.65c0-4.12,1.46-7.74,4.34-10.67c2.93-2.99,6.52-4.37,10.81-4.37c4.34,0,7.98,1.2,10.97,3.64V41.41z
		 M312.45,47.6c-2.71-2.6-6.24-3.91-10.59-3.91c-3.53,0-6.46,1.11-8.91,3.5c-2.39,2.33-3.58,5.3-3.58,8.66
		c0,3.37,1.2,6.25,3.64,8.64c2.44,2.39,5.37,3.59,8.85,3.59c4.4,0,7.93-1.25,10.59-3.8V47.6z"/>
	<path class="st0" d="M284.34,63.97c-2.3,2.73-5.72,4.07-9.11,4.07c-3.53,0-6.05-1.11-8.61-3.45c-2.56-2.39-3.72-5.35-3.72-8.72
		c0-3.42,1.16-6.39,3.72-8.72c2.55-2.39,4.99-3.5,8.52-3.5c3.46,0,6.99,1.31,9.25,3.97c0.42-0.89,0.92-1.74,1.49-2.57
		c-2.75-2.81-6.82-4.22-10.74-4.22c-4.4,0-7.6,1.38-10.69,4.31c-3.1,2.94-4.58,6.55-4.58,10.73c0,4.18,1.49,7.8,4.58,10.73
		c3.09,2.88,6.38,4.26,10.78,4.26c3.76,0,7.98-1.57,10.57-4.32C285.25,65.72,284.76,64.86,284.34,63.97"/>
	<path class="st1" d="M257.91,65.8c0,2.8-2.27,5.06-5.07,5.06c-2.8,0-5.06-2.27-5.06-5.06c0-2.8,2.26-5.06,5.06-5.06
		C255.65,60.74,257.91,63,257.91,65.8"/>
</g>
</svg>
